<?xml version="1.0" encoding="UTF-8" standalone="no"?>
<!DOCTYPE svg PUBLIC "-//W3C//DTD SVG 1.1//EN"
 "http://www.w3.org/Graphics/SVG/1.1/DTD/svg11.dtd">
<!-- Generated by graphviz version 2.38.0 (20140413.2041)
 -->
<!-- Title: G Pages: 1 -->
<svg width="785pt" height="222pt"
 viewBox="0.00 0.00 784.96 222.00" xmlns="http://www.w3.org/2000/svg" xmlns:xlink="http://www.w3.org/1999/xlink">
<g id="graph0" class="graph" transform="scale(1 1) rotate(0) translate(4 218)">
<title>G</title>
<polygon fill="white" stroke="none" points="-4,4 -4,-218 780.956,-218 780.956,4 -4,4"/>
<g id="clust1" class="cluster"><title>cluster_Global</title>
<path fill="none" stroke="gray" d="M553.956,-8C553.956,-8 756.956,-8 756.956,-8 762.956,-8 768.956,-14 768.956,-20 768.956,-20 768.956,-194 768.956,-194 768.956,-200 762.956,-206 756.956,-206 756.956,-206 553.956,-206 553.956,-206 547.956,-206 541.956,-200 541.956,-194 541.956,-194 541.956,-20 541.956,-20 541.956,-14 547.956,-8 553.956,-8"/>
<text text-anchor="middle" x="655.456" y="-193.2" font-family="Times New Roman,serif" font-size="11.00" fill="gray">Global</text>
</g>
<g id="clust2" class="cluster"><title>cluster_\Slothsoft</title>
<path fill="none" stroke="gray" d="M561.956,-16C561.956,-16 748.956,-16 748.956,-16 754.956,-16 760.956,-22 760.956,-28 760.956,-28 760.956,-166 760.956,-166 760.956,-172 754.956,-178 748.956,-178 748.956,-178 561.956,-178 561.956,-178 555.956,-178 549.956,-172 549.956,-166 549.956,-166 549.956,-28 549.956,-28 549.956,-22 555.956,-16 561.956,-16"/>
<text text-anchor="middle" x="655.456" y="-165.2" font-family="Times New Roman,serif" font-size="11.00" fill="gray">Slothsoft</text>
</g>
<g id="clust3" class="cluster"><title>cluster_\Slothsoft\Blob</title>
<path fill="none" stroke="gray" d="M569.956,-24C569.956,-24 740.956,-24 740.956,-24 746.956,-24 752.956,-30 752.956,-36 752.956,-36 752.956,-138 752.956,-138 752.956,-144 746.956,-150 740.956,-150 740.956,-150 569.956,-150 569.956,-150 563.956,-150 557.956,-144 557.956,-138 557.956,-138 557.956,-36 557.956,-36 557.956,-30 563.956,-24 569.956,-24"/>
<text text-anchor="middle" x="655.456" y="-137.2" font-family="Times New Roman,serif" font-size="11.00" fill="gray">Blob</text>
</g>
<!-- \\Slothsoft\\Blob\\BlobStreamWrapperFactory -->
<g id="node1" class="node"><title>\\Slothsoft\\Blob\\BlobStreamWrapperFactory</title>
<polygon fill="none" stroke="black" points="744.956,-122 565.956,-122 565.956,-86 744.956,-86 744.956,-122"/>
<text text-anchor="middle" x="655.456" y="-101.2" font-family="Courier,monospace" font-size="11.00">BlobStreamWrapperFactory</text>
</g>
<!-- \\Slothsoft\\Core\\StreamWrapper\\StreamWrapperFactoryInterface -->
<g id="node3" class="node"><title>\\Slothsoft\\Core\\StreamWrapper\\StreamWrapperFactoryInterface</title>
<ellipse fill="none" stroke="black" cx="246.978" cy="-104" rx="246.956" ry="18"/>
<text text-anchor="middle" x="246.978" y="-100.3" font-family="Times New Roman,serif" font-size="14.00" fill="gray">\Slothsoft\Core\StreamWrapper\StreamWrapperFactoryInterface</text>
</g>
<!-- \\Slothsoft\\Blob\\BlobStreamWrapperFactory&#45;&gt;\\Slothsoft\\Core\\StreamWrapper\\StreamWrapperFactoryInterface -->
<g id="edge1" class="edge"><title>\\Slothsoft\\Blob\\BlobStreamWrapperFactory&#45;&gt;\\Slothsoft\\Core\\StreamWrapper\\StreamWrapperFactoryInterface</title>
<path fill="none" stroke="black" stroke-dasharray="1,5" d="M565.755,-104C546.815,-104 525.903,-104 504.121,-104"/>
<polygon fill="none" stroke="black" points="504.055,-100.5 494.055,-104 504.055,-107.5 504.055,-100.5"/>
</g>
<!-- \\Slothsoft\\Blob\\BlobUrl -->
<g id="node2" class="node"><title>\\Slothsoft\\Blob\\BlobUrl</title>
<polygon fill="none" stroke="black" points="687.456,-68 623.456,-68 623.456,-32 687.456,-32 687.456,-68"/>
<text text-anchor="middle" x="655.456" y="-47.2" font-family="Courier,monospace" font-size="11.00">BlobUrl</text>
</g>
<!-- \\w3c\\FileAPI\\URL -->
<g id="node4" class="node"><title>\\w3c\\FileAPI\\URL</title>
<ellipse fill="none" stroke="black" cx="246.978" cy="-50" rx="79.0865" ry="18"/>
<text text-anchor="middle" x="246.978" y="-46.3" font-family="Times New Roman,serif" font-size="14.00" fill="gray">\w3c\FileAPI\URL</text>
</g>
<!-- \\Slothsoft\\Blob\\BlobUrl&#45;&gt;\\w3c\\FileAPI\\URL -->
<g id="edge2" class="edge"><title>\\Slothsoft\\Blob\\BlobUrl&#45;&gt;\\w3c\\FileAPI\\URL</title>
<path fill="none" stroke="black" stroke-dasharray="1,5" d="M623.235,-50C562.643,-50 427.121,-50 336.625,-50"/>
<polygon fill="none" stroke="black" points="336.369,-46.5001 326.369,-50 336.369,-53.5001 336.369,-46.5001"/>
</g>
</g>
</svg>
